<svg width="390" height="88" viewBox="0 0 390 88" fill="none" xmlns="http://www.w3.org/2000/svg">
<path d="M20.114 21.6738C24.1853 21.6512 28.7655 22.5446 33.8546 24.3541L31.7171 32.4967C26.9899 30.8229 23.1448 29.986 20.1818 29.986C17.7843 29.986 15.8956 30.461 14.5159 31.411C13.1362 32.3609 12.4463 33.6502 12.4463 35.2787C12.4463 37.0429 13.0797 38.4453 14.3463 39.4857C15.6355 40.5262 17.9765 41.4874 21.3693 42.3695C26.3679 43.6588 29.919 45.4456 32.0225 47.7301C34.126 49.9919 35.1777 53.1132 35.1777 57.0941C35.1777 61.9118 33.5492 65.6099 30.2922 68.1884C27.0578 70.7442 22.4323 72.0222 16.4159 72.0222C11.5077 72.0222 6.24893 70.9139 0.639587 68.6973L3.15022 60.7922C6.24893 61.9005 8.78218 62.6808 10.75 63.1332C12.7178 63.5629 14.5838 63.7778 16.348 63.7778C18.9039 63.7778 20.8717 63.2349 22.2514 62.1493C23.6537 61.041 24.3549 59.5142 24.3549 57.569C24.3549 56.325 24.0609 55.2846 23.4728 54.4477C22.8847 53.6108 21.8895 52.8644 20.4872 52.2085C19.0848 51.53 17.0605 50.8627 14.4141 50.2068C10.0036 49.1437 6.78046 47.4926 4.74481 45.2534C2.70916 43.0142 1.69134 40.0625 1.69134 36.3983C1.69134 31.7163 3.29724 28.0974 6.50904 25.5415C9.74346 22.963 14.2784 21.6738 20.114 21.6738Z" fill="white"/>
<path d="M49.278 39.5875C50.7934 37.959 52.569 36.715 54.6046 35.8555C56.6403 34.996 58.8682 34.5662 61.2883 34.5662C65.0882 34.5662 68.0173 35.6745 70.0755 37.8911C72.1338 40.0851 73.1629 43.2404 73.1629 47.3569V71.5472H62.7472V47.9337C62.7472 45.8075 62.3288 44.2695 61.4919 43.3195C60.655 42.3695 59.3092 41.8946 57.4545 41.8946C55.7808 41.8946 54.2201 42.2791 52.7725 43.0481C51.325 43.7945 50.1601 44.8123 49.278 46.1016V71.5472H38.8283V19.1632H49.278V39.5875Z" fill="white"/>
<path d="M92.6237 34.4305C97.7581 34.4305 101.694 35.6971 104.431 38.2304C107.167 40.7636 108.536 44.4391 108.536 49.2568V71.5472H99.9182L98.7307 67.2384C97.2379 68.8217 95.5528 70.0317 93.6755 70.8686C91.8208 71.6829 89.8304 72.09 87.7043 72.09C83.9496 72.09 80.964 71.1174 78.7474 69.1722C76.5534 67.2271 75.4564 64.6147 75.4564 61.335C75.4564 57.5351 77.051 54.5721 80.2402 52.446C83.452 50.3199 87.9304 49.2568 93.6755 49.2568H98.12V48.3408C97.9843 44.1338 95.5981 42.0303 90.9613 42.0303C89.378 42.0303 87.5459 42.2678 85.465 42.7427C83.3842 43.1951 81.5068 43.7832 79.8331 44.507L77.6278 37.484C80.0253 36.5114 82.5473 35.765 85.1936 35.2448C87.84 34.7019 90.3167 34.4305 92.6237 34.4305ZM94.5576 54.9566C91.5946 54.9566 89.2875 55.4655 87.6364 56.4834C86.0079 57.5012 85.1936 58.9148 85.1936 60.7243C85.1936 62.2171 85.646 63.3593 86.5507 64.151C87.4555 64.92 88.7334 65.3045 90.3845 65.3045C91.8773 65.3045 93.3023 64.9765 94.6594 64.3206C96.0391 63.6647 97.1926 62.7826 98.12 61.6743V54.9566H94.5576Z" fill="white"/>
<path d="M123.45 40.1982C125.735 36.4435 128.935 34.5662 133.052 34.5662C133.934 34.5662 134.68 34.6228 135.291 34.7359C135.924 34.8263 136.727 35.0073 137.7 35.2787L136.512 44.3713C134.567 43.6701 132.848 43.3308 131.355 43.3534C129.727 43.3534 128.347 43.6475 127.216 44.2356C126.085 44.801 125.135 45.7057 124.366 46.9498V71.5472H113.917V35.143H122.195L123.45 40.1982Z" fill="white"/>
<path d="M159.739 34.668C164.783 34.668 168.707 36.2287 171.512 39.35C174.317 42.4713 175.719 46.9045 175.719 52.6496C175.719 56.6756 174.916 60.1475 173.31 63.0653C171.704 65.9831 169.431 68.2223 166.491 69.7829C163.55 71.321 160.067 72.09 156.041 72.09C154.141 72.09 152.105 71.8412 149.934 71.3436V87.4592H139.518V35.143H147.491L149.086 39.4518C150.624 37.778 152.23 36.5679 153.904 35.8215C155.6 35.0525 157.545 34.668 159.739 34.668ZM155.43 64.9992C158.574 64.9992 160.983 63.9813 162.657 61.9457C164.353 59.91 165.201 56.9244 165.201 52.9888C165.201 45.6605 162.657 42.0077 157.568 42.0303C155.713 42.0303 154.118 42.5279 152.784 43.5231C151.472 44.5183 150.522 45.9206 149.934 47.7301V64.2528C151.269 64.5694 152.275 64.773 152.954 64.8635C153.632 64.9539 154.458 64.9992 155.43 64.9992Z" fill="white"/>
<path d="M205.969 22.1151C208.48 22.1151 210.968 22.4657 213.433 23.1668C215.921 23.8454 218.251 24.8519 220.422 26.1864L217.64 31.6148C215.514 30.4612 213.512 29.6357 211.635 29.1381C209.757 28.6178 207.869 28.3577 205.969 28.3577C200.744 28.3577 196.707 29.9862 193.857 33.2433C191.007 36.4777 189.582 41.1031 189.582 47.1196C189.582 53.1813 190.984 57.8633 193.789 61.1656C196.594 64.4452 200.586 66.0851 205.765 66.0851C209.882 66.0851 214.078 65.1125 218.352 63.1673L220.795 68.8671C218.533 69.9302 216.045 70.7784 213.331 71.4117C210.617 72.0224 208.005 72.3277 205.494 72.3277C198.075 72.3277 192.409 70.1677 188.496 65.8476C184.583 61.5049 182.627 55.2622 182.627 47.1196C182.627 41.94 183.554 37.4729 185.409 33.7183C187.264 29.9636 189.932 27.0911 193.416 25.1007C196.922 23.1103 201.106 22.1151 205.969 22.1151Z" fill="white"/>
<path d="M225.59 19.7401H232.104V71.8527H225.59V19.7401Z" fill="white"/>
<path d="M255.389 35.4486C260.75 35.4486 264.911 37.0771 267.874 40.3341C270.837 43.5685 272.319 48.1035 272.319 53.939C272.319 59.7746 270.837 64.3095 267.874 67.5439C264.911 70.7784 260.75 72.3956 255.389 72.3956C250.006 72.3956 245.833 70.7784 242.87 67.5439C239.907 64.3095 238.425 59.7746 238.425 53.939C238.425 48.1035 239.907 43.5685 242.87 40.3341C245.833 37.0771 250.006 35.4486 255.389 35.4486ZM255.389 41.2162C252.041 41.2162 249.486 42.3019 247.721 44.4733C245.98 46.6446 245.109 49.7999 245.109 53.939C245.109 58.0556 245.98 61.1995 247.721 63.3709C249.486 65.5422 252.041 66.6279 255.389 66.6279C258.714 66.6279 261.258 65.5422 263.023 63.3709C264.787 61.1995 265.669 58.0556 265.669 53.939C265.669 49.8225 264.787 46.6786 263.023 44.5072C261.258 42.3132 258.714 41.2162 255.389 41.2162Z" fill="white"/>
<path d="M292.991 35.5164C296.723 35.5164 300.309 36.5116 303.746 38.502L301.473 43.7269C298.556 42.0983 295.728 41.2841 292.991 41.2841C289.667 41.2841 287.099 42.3811 285.29 44.5751C283.48 46.769 282.576 49.8904 282.576 53.939C282.576 58.0103 283.503 61.1204 285.358 63.2691C287.212 65.4178 289.893 66.4922 293.399 66.4922C294.688 66.4922 296.135 66.2999 297.741 65.9154C299.347 65.5083 300.885 64.9881 302.355 64.3548L304.12 69.5457C302.355 70.3826 300.456 71.0498 298.42 71.5474C296.384 72.0224 294.462 72.2599 292.652 72.2599C287.314 72.2599 283.186 70.6653 280.269 67.4761C277.351 64.2869 275.892 59.7746 275.892 53.939C275.892 48.1487 277.396 43.6364 280.404 40.402C283.413 37.1449 287.608 35.5164 292.991 35.5164Z" fill="white"/>
<path d="M308.88 19.4009H315.394V71.8527H308.88V19.4009ZM339.72 71.8527H331.747L316.311 51.632L329.508 36.1271H337.244L324.25 51.2927L339.72 71.8527Z" fill="white"/>
<path d="M365.717 43.8339C376.554 43.8339 385.34 35.0485 385.34 24.2112C385.34 13.3739 376.554 4.58859 365.717 4.58859C354.88 4.58859 346.094 13.3739 346.094 24.2112C346.094 35.0485 354.88 43.8339 365.717 43.8339Z" stroke="#ED0000" stroke-width="3.92453" stroke-linecap="round" stroke-linejoin="round"/>
<path d="M365.717 12.4376V24.2112H376.509" stroke="#ED0000" stroke-width="3.92453" stroke-linecap="round" stroke-linejoin="round"/>
</svg>
