<svg width="390" height="88" viewBox="0 0 390 88" fill="none" xmlns="http://www.w3.org/2000/svg">
<path d="M20.114 21.8059C24.1853 21.7832 28.7655 22.6767 33.8546 24.4861L31.7171 32.6287C26.9899 30.955 23.1448 30.1181 20.1818 30.1181C17.7843 30.1181 15.8956 30.5931 14.5159 31.543C13.1362 32.493 12.4463 33.7823 12.4463 35.4108C12.4463 37.175 13.0797 38.5773 14.3463 39.6178C15.6355 40.6582 17.9765 41.6195 21.3693 42.5016C26.3679 43.7909 29.919 45.5777 32.0225 47.8622C34.126 50.124 35.1777 53.2453 35.1777 57.2261C35.1777 62.0438 33.5492 65.7419 30.2922 68.3204C27.0578 70.8763 22.4323 72.1542 16.4159 72.1542C11.5077 72.1542 6.24893 71.0459 0.639587 68.8293L3.15022 60.9242C6.24893 62.0325 8.78218 62.8129 10.75 63.2652C12.7178 63.695 14.5838 63.9098 16.348 63.9098C18.9039 63.9098 20.8717 63.367 22.2514 62.2813C23.6537 61.173 24.3549 59.6463 24.3549 57.7011C24.3549 56.4571 24.0609 55.4167 23.4728 54.5798C22.8847 53.7429 21.8895 52.9965 20.4872 52.3406C19.0848 51.662 17.0605 50.9948 14.4141 50.3389C10.0036 49.2758 6.78046 47.6247 4.74481 45.3855C2.70916 43.1462 1.69134 40.1945 1.69134 36.5304C1.69134 31.8484 3.29724 28.2295 6.50904 25.6736C9.74346 23.0951 14.2784 21.8059 20.114 21.8059Z" fill="black"/>
<path d="M49.278 39.7196C50.7934 38.091 52.569 36.847 54.6046 35.9875C56.6403 35.128 58.8682 34.6983 61.2883 34.6983C65.0882 34.6983 68.0173 35.8066 70.0755 38.0232C72.1338 40.2172 73.1629 43.3724 73.1629 47.489V71.6792H62.7472V48.0657C62.7472 45.9396 62.3288 44.4016 61.4919 43.4516C60.655 42.5016 59.3092 42.0266 57.4545 42.0266C55.7808 42.0266 54.2201 42.4111 52.7725 43.1802C51.325 43.9266 50.1601 44.9444 49.278 46.2336V71.6792H38.8283V19.2952H49.278V39.7196Z" fill="black"/>
<path d="M92.6237 34.5626C97.7581 34.5626 101.694 35.8292 104.431 38.3625C107.167 40.8957 108.536 44.5712 108.536 49.3889V71.6792H99.9182L98.7307 67.3704C97.2379 68.9537 95.5528 70.1638 93.6755 71.0007C91.8208 71.8149 89.8304 72.2221 87.7043 72.2221C83.9496 72.2221 80.964 71.2495 78.7474 69.3043C76.5534 67.3591 75.4564 64.7467 75.4564 61.4671C75.4564 57.6672 77.051 54.7042 80.2402 52.5781C83.452 50.452 87.9304 49.3889 93.6755 49.3889H98.12V48.4729C97.9843 44.2658 95.5981 42.1623 90.9613 42.1623C89.378 42.1623 87.5459 42.3998 85.465 42.8748C83.3842 43.3272 81.5068 43.9153 79.8331 44.639L77.6278 37.6161C80.0253 36.6435 82.5473 35.8971 85.1936 35.3768C87.84 34.834 90.3167 34.5626 92.6237 34.5626ZM94.5576 55.0887C91.5946 55.0887 89.2875 55.5976 87.6364 56.6154C86.0079 57.6333 85.1936 59.0469 85.1936 60.8564C85.1936 62.3492 85.646 63.4914 86.5507 64.2831C87.4555 65.0521 88.7334 65.4366 90.3845 65.4366C91.8773 65.4366 93.3023 65.1086 94.6594 64.4527C96.0391 63.7968 97.1926 62.9146 98.12 61.8063V55.0887H94.5576Z" fill="black"/>
<path d="M123.45 40.3303C125.735 36.5756 128.935 34.6983 133.052 34.6983C133.934 34.6983 134.68 34.7548 135.291 34.8679C135.924 34.9584 136.727 35.1394 137.7 35.4108L136.512 44.5033C134.567 43.8022 132.848 43.4629 131.355 43.4855C129.727 43.4855 128.347 43.7796 127.216 44.3676C126.085 44.9331 125.135 45.8378 124.366 47.0818V71.6792H113.917V35.2751H122.195L123.45 40.3303Z" fill="black"/>
<path d="M159.739 34.8001C164.783 34.8001 168.707 36.3607 171.512 39.4821C174.317 42.6034 175.719 47.0366 175.719 52.7816C175.719 56.8077 174.916 60.2796 173.31 63.1974C171.704 66.1151 169.431 68.3543 166.491 69.915C163.55 71.4531 160.067 72.2221 156.041 72.2221C154.141 72.2221 152.105 71.9733 149.934 71.4757V87.5912H139.518V35.2751H147.491L149.086 39.5839C150.624 37.9101 152.23 36.7 153.904 35.9536C155.6 35.1846 157.545 34.8001 159.739 34.8001ZM155.43 65.1312C158.574 65.1312 160.983 64.1134 162.657 62.0778C164.353 60.0421 165.201 57.0565 165.201 53.1209C165.201 45.7926 162.657 42.1397 157.568 42.1623C155.713 42.1623 154.118 42.6599 152.784 43.6552C151.472 44.6504 150.522 46.0527 149.934 47.8622V64.3848C151.269 64.7015 152.275 64.9051 152.954 64.9955C153.632 65.086 154.458 65.1312 155.43 65.1312Z" fill="black"/>
<path d="M205.969 22.2472C208.48 22.2472 210.968 22.5977 213.433 23.2989C215.921 23.9775 218.251 24.984 220.422 26.3185L217.64 31.7468C215.514 30.5933 213.512 29.7677 211.635 29.2701C209.757 28.7499 207.869 28.4898 205.969 28.4898C200.744 28.4898 196.707 30.1183 193.857 33.3754C191.007 36.6098 189.582 41.2352 189.582 47.2517C189.582 53.3134 190.984 57.9954 193.789 61.2977C196.594 64.5773 200.586 66.2172 205.765 66.2172C209.882 66.2172 214.078 65.2446 218.352 63.2994L220.795 68.9992C218.533 70.0623 216.045 70.9105 213.331 71.5438C210.617 72.1545 208.005 72.4598 205.494 72.4598C198.075 72.4598 192.409 70.2998 188.496 65.9797C184.583 61.6369 182.627 55.3943 182.627 47.2517C182.627 42.0721 183.554 37.605 185.409 33.8504C187.264 30.0957 189.932 27.2232 193.416 25.2328C196.922 23.2424 201.106 22.2472 205.969 22.2472Z" fill="black"/>
<path d="M225.59 19.8722H232.104V71.9848H225.59V19.8722Z" fill="black"/>
<path d="M255.389 35.5807C260.75 35.5807 264.911 37.2092 267.874 40.4662C270.837 43.7006 272.319 48.2356 272.319 54.0711C272.319 59.9067 270.837 64.4416 267.874 67.676C264.911 70.9105 260.75 72.5277 255.389 72.5277C250.006 72.5277 245.833 70.9105 242.87 67.676C239.907 64.4416 238.425 59.9067 238.425 54.0711C238.425 48.2356 239.907 43.7006 242.87 40.4662C245.833 37.2092 250.006 35.5807 255.389 35.5807ZM255.389 41.3483C252.041 41.3483 249.486 42.434 247.721 44.6054C245.98 46.7767 245.109 49.932 245.109 54.0711C245.109 58.1877 245.98 61.3316 247.721 63.503C249.486 65.6743 252.041 66.76 255.389 66.76C258.714 66.76 261.258 65.6743 263.023 63.503C264.787 61.3316 265.669 58.1877 265.669 54.0711C265.669 49.9546 264.787 46.8106 263.023 44.6393C261.258 42.4453 258.714 41.3483 255.389 41.3483Z" fill="black"/>
<path d="M292.991 35.6485C296.723 35.6485 300.309 36.6437 303.746 38.6341L301.473 43.859C298.556 42.2304 295.728 41.4162 292.991 41.4162C289.667 41.4162 287.099 42.5132 285.29 44.7071C283.48 46.9011 282.576 50.0224 282.576 54.0711C282.576 58.1424 283.503 61.2524 285.358 63.4012C287.212 65.5499 289.893 66.6243 293.399 66.6243C294.688 66.6243 296.135 66.432 297.741 66.0475C299.347 65.6404 300.885 65.1202 302.355 64.4869L304.12 69.6778C302.355 70.5146 300.456 71.1819 298.42 71.6795C296.384 72.1545 294.462 72.392 292.652 72.392C287.314 72.392 283.186 70.7974 280.269 67.6082C277.351 64.419 275.892 59.9067 275.892 54.0711C275.892 48.2808 277.396 43.7685 280.404 40.5341C283.413 37.277 287.608 35.6485 292.991 35.6485Z" fill="black"/>
<path d="M308.88 19.533H315.394V71.9848H308.88V19.533ZM339.72 71.9848H331.747L316.311 51.7641L329.508 36.2592H337.244L324.25 51.4248L339.72 71.9848Z" fill="black"/>
<path d="M365.717 43.9659C376.554 43.9659 385.34 35.1806 385.34 24.3433C385.34 13.506 376.554 4.72066 365.717 4.72066C354.88 4.72066 346.094 13.506 346.094 24.3433C346.094 35.1806 354.88 43.9659 365.717 43.9659Z" stroke="#ED0000" stroke-width="3.92453" stroke-linecap="round" stroke-linejoin="round"/>
<path d="M365.717 12.5697V24.3433H376.509" stroke="#ED0000" stroke-width="3.92453" stroke-linecap="round" stroke-linejoin="round"/>
</svg>
